<?xml version="1.0" encoding="UTF-8" standalone="no"?>
<svg
   xmlns:dc="http://purl.org/dc/elements/1.1/"
   xmlns:cc="http://creativecommons.org/ns#"
   xmlns:rdf="http://www.w3.org/1999/02/22-rdf-syntax-ns#"
   xmlns:svg="http://www.w3.org/2000/svg"
   xmlns="http://www.w3.org/2000/svg"
   id="svg4"
   version="1.1"
   viewBox="0 0 512 512"
   role="img"
   class="svg-inline--fa fa-comment fa-w-16"
   data-icon="comment"
   data-prefix="far"
   focusable="false"
   aria-hidden="true">
  <metadata
     id="metadata10">
    <rdf:RDF>
      <cc:Work
         rdf:about="">
        <dc:format>image/svg+xml</dc:format>
        <dc:type
           rdf:resource="http://purl.org/dc/dcmitype/StillImage" />
        <dc:title></dc:title>
      </cc:Work>
    </rdf:RDF>
  </metadata>
  <defs
     id="defs8" />
  <path
     style="fill:#d4aa00;stroke:#000000;stroke-width:4;stroke-miterlimit:4;stroke-dasharray:none;stroke-linejoin:round;stroke-linecap:round;paint-order:normal"
     id="path2"
     d="m 256.28135,31.97616 c -138.29236,0 -250.3737118,92.90908 -250.3737118,207.57346 0,47.50239 19.4626438,91.01298 51.7373798,126.04101 -14.572532,39.3192 -44.891224,72.65071 -45.380234,73.04989 -6.454948,6.98564 -8.2153882,17.16473 -4.4989034,25.94669 3.7164854,8.78195 12.2252794,14.47026 21.6142924,14.47026 60.148372,0 107.582447,-25.6473 136.042907,-46.20506 28.26484,9.08135 58.77913,14.27068 90.85827,14.27068 138.29235,0 250.37371,-92.90909 250.37371,-207.57347 0,-114.66438 -112.08136,-207.57346 -250.37371,-207.57346 z m 0,367.24536 c -26.1132,0 -51.93298,-4.09159 -76.67695,-12.07518 l -22.2011,-7.18524 -19.07145,13.7717 c -13.98571,10.07929 -33.15495,21.35612 -56.236274,28.94053 7.139563,-12.07519 14.083521,-25.64729 19.462644,-40.11756 l 10.36704,-28.04238 -20.147263,-21.7553 C 74.075793,313.49767 52.852708,281.66308 52.852708,239.54962 c 0,-88.01913 91.249482,-159.671892 203.428642,-159.671892 112.17916,0 203.42864,71.652762 203.42864,159.671892 0,88.01913 -91.24948,159.6719 -203.42864,159.6719 z" />
</svg>
