<?xml version="1.0" encoding="UTF-8" standalone="no"?>
<svg
   xmlns:dc="http://purl.org/dc/elements/1.1/"
   xmlns:cc="http://creativecommons.org/ns#"
   xmlns:rdf="http://www.w3.org/1999/02/22-rdf-syntax-ns#"
   xmlns:svg="http://www.w3.org/2000/svg"
   xmlns="http://www.w3.org/2000/svg"
   id="svg4"
   version="1.1"
   viewBox="0 0 384 512"
   role="img"
   class="svg-inline--fa fa-code-branch fa-w-12"
   data-icon="code-branch"
   data-prefix="fas"
   focusable="false"
   aria-hidden="true">
  <metadata
     id="metadata10">
    <rdf:RDF>
      <cc:Work
         rdf:about="">
        <dc:format>image/svg+xml</dc:format>
        <dc:type
           rdf:resource="http://purl.org/dc/dcmitype/StillImage" />
        <dc:title></dc:title>
      </cc:Work>
    </rdf:RDF>
  </metadata>
  <defs
     id="defs8" />
  <path
     id="path3733"
     d="M 60.350091,508.43346 C 27.528731,499.834 4.400491,472.34475 0.89901101,437.77239 -0.57634899,423.20522 4.544411,402.69369 12.928591,389.5871 c 8.60969,-13.45912 23.10517,-25.73196 37.11936,-31.42776 l 6.26307,-2.5455 V 255.55719 155.50053 l -6.37666,-2.56339 C 14.013041,138.49692 -6.524729,97.632675 3.179801,59.909099 c 7.14559,-27.77638 30.72834,-50.9678004 58.55495,-57.5832804 9.8023,-2.33039006 27.004216,-2.34980006 36.685076,-0.0414 27.910333,6.65523 50.505733,28.5629004 58.365263,56.5888304 1.82112,6.49389 2.42641,11.58159 2.44618,20.561286 0.032,14.54871 -1.81759,22.265925 -8.69005,36.257795 -8.13178,16.55572 -23.02593,30.19014 -41.04307,37.5717 l -5.45833,2.23625 -0.27887,72.34002 c -0.15338,39.78701 -0.0441,72.34001 0.24295,72.34001 0.287,0 4.07351,-1.40637 8.41447,-3.12528 15.93477,-6.30976 33.46682,-9.61372 69.72315,-13.13954 54.92881,-5.34164 72.65208,-10.10846 85.4659,-22.98677 8.27388,-8.31551 12.15791,-17.92047 14.24716,-35.23227 l 0.67612,-5.60251 -4.0929,-1.32622 c -19.26284,-6.24173 -37.06129,-22.36888 -46.14483,-41.81173 -5.05785,-10.82605 -7.26068,-20.8973 -7.28516,-33.3073 -0.0252,-12.74928 2.39895,-23.03913 8.34758,-35.43387 4.22776,-8.809125 6.33712,-11.670855 14.82375,-20.111265 7.48484,-7.44407 12.02298,-10.93967 18.63393,-14.35317 24.48242,-12.641236 50.24227,-12.641236 74.72469,0 12.63501,6.52396 26.63051,20.69779 32.92562,33.345175 11.72224,23.55089 11.97509,47.8178 0.74028,71.05085 -8.13072,16.81393 -19.83632,28.59815 -36.43146,36.67616 l -9.33541,4.54418 -0.67304,9.29962 c -1.29432,17.88439 -6.1287,34.4719 -14.04538,48.19191 -5.72369,9.91947 -20.67008,24.87134 -30.61075,30.62201 -22.15473,12.81647 -41.44382,17.45564 -96,23.08872 -36.19796,3.73753 -52.31689,6.89044 -63.59749,12.43984 -6.87461,3.38191 -15.58895,10.87104 -15.58895,13.39719 0,0.49359 3.70957,2.78032 8.24349,5.08163 10.11566,5.13444 22.34109,16.2695 29.21501,26.60937 30.07036,45.23226 6.11434,106.85223 -46.802543,120.38609 -11.09424,2.83742 -28.291036,2.81565 -39.227046,-0.0497 z m 27.508706,-62.47034 c 9.83388,-4.66647 11.5558,-18.94725 3.17215,-26.30818 -7.01918,-6.16293 -17.010086,-5.55784 -23.119316,1.4002 -9.03321,10.28824 -1.96319,26.57994 11.557486,26.63231 2.59458,0.01 6.36994,-0.7659 8.38968,-1.72433 z M 311.75495,157.7804 c 5.51767,-2.91783 8.69334,-8.15562 8.68759,-14.32893 -0.01,-10.2669 -10.41804,-18.23952 -20.31411,-15.56007 -14.44377,3.91078 -16.6995,23.15141 -3.50731,29.91603 6.00547,3.07945 9.2704,3.07362 15.13383,-0.027 z M 86.575747,94.736065 c 4.71342,-1.96939 9.05984,-7.76133 9.88191,-13.1684 0.84388,-5.55055 -2.89823,-13.182696 -7.85926,-16.029226 -4.53018,-2.59932 -12.307046,-2.60237 -16.845936,-0.007 -5.04239,2.88369 -8.81714,10.879566 -7.84698,16.621896 1.78609,10.57179 12.82234,16.69707 22.670266,12.58235 z"
     style="fill:#0044aa;stroke:#0066ff;stroke-width:1.08474576" />
  <path
     id="path3737"
     d="m 58.005591,506.85442 c -20.60361,-5.77646 -38.59408,-21.00927 -48.4759,-41.04532 -5.43714,-11.02415 -5.9387,-13.16208 -6.60559,-28.15702 -0.84776,-19.0616 1.11389,-29.82103 7.71767,-42.33067 6.30557,-11.94469 22.12974,-27.3379 35.12133,-34.16479 l 10.54792,-5.54278 V 255.23216 154.85048 l -10.35492,-5.00144 c -14.01804,-6.77073 -30.02416,-22.7756 -37.21965,-37.21675 L 3.385881,101.89386 V 79.64996 57.40605 l 5.3492,-10.66552 c 7.06465,-14.08588 21.86171,-28.88294 36.93205,-36.93205 l 11.41092,-6.0946 h 22.2439 c 21.970539,0 22.357019,0.0593 31.448279,4.82535 13.2918,6.96818 24.41456,16.37787 32.1113,27.16572 11.13705,15.60982 12.38178,20.11989 12.34007,44.71204 -0.0337,19.84516 -0.33724,22.11789 -3.99584,29.91421 -7.75108,16.51721 -23.79295,32.38645 -41.25376,40.80983 l -7.63911,3.68523 0.0884,66.34457 c 0.0909,68.21371 0.72345,79.00397 4.57935,78.1155 1.19716,-0.27584 9.78351,-2.4553 19.08077,-4.84323 9.5549,-2.4541 33.57781,-6.41962 55.25568,-9.1212 21.09335,-2.62872 44.32158,-6.09903 51.61829,-7.71179 15.86308,-3.50615 29.99092,-10.29873 35.86369,-17.24306 8.32856,-9.84819 14.86327,-29.7591 12.35773,-37.65336 -0.51936,-1.63635 -5.93171,-5.67391 -12.02745,-8.97236 -14.98837,-8.11032 -29.91492,-23.1202 -36.60649,-36.81085 -5.16404,-10.56538 -5.18391,-10.69132 -5.18391,-32.87612 0,-22.236 0.008,-22.28651 5.24205,-32.98234 7.09968,-14.508367 23.17,-30.58126 37.67943,-37.68549 l 10.70619,-5.24204 h 23.04318 23.04319 l 9.85235,5.34039 c 12.16229,6.59248 25.13904,18.259672 31.59768,28.40898 24.7589,38.90689 12.08856,86.73018 -29.38297,110.9039 -11.96108,6.97211 -12.83409,8.18547 -12.83409,17.83739 0,9.60508 -5.34892,28.87016 -11.02825,39.72013 -3.00751,5.74565 -9.83148,14.4033 -17.29587,21.94346 -23.03108,23.26483 -43.72575,29.91834 -118.94585,38.24202 -38.50594,4.26098 -54.92307,8.96494 -66.19295,18.96609 -7.75867,6.88521 -7.3518,8.03721 5.37561,15.22012 10.8976,6.15022 25.68535,22.38483 31.90909,35.03114 5.07798,10.31816 5.13029,10.6438 5.13029,31.93023 0,20.9091 -0.13239,21.78241 -4.77446,31.47716 -2.62595,5.48427 -7.66591,13.56594 -11.19991,17.95925 -7.28326,9.05422 -23.25919,20.19924 -34.64968,24.17208 -10.696049,3.73062 -35.877289,4.57178 -46.628389,1.55759 z m 27.39334,-59.76592 c 18.718469,-9.67971 10.69043,-36.21223 -9.79409,-32.36931 -14.85024,2.78591 -17.81385,24.91527 -4.31743,32.23834 5.38013,2.91923 8.66074,2.94968 14.11152,0.13101 z M 314.9539,155.73944 c 4.02621,-4.02621 5.21581,-6.49277 5.21581,-10.81462 0,-17.7688 -18.53843,-24.82226 -29.864,-11.36259 -9.17438,10.90314 -0.67655,27.15269 14.29327,27.3316 3.84702,0.046 6.45049,-1.24996 10.35492,-5.15439 z M 89.840291,92.63928 c 6.59116,-5.546096 8.77023,-12.97436 5.60281,-19.09948 -2.87958,-5.56849 -10.65236,-10.75306 -16.12115,-10.75306 -9.44108,0 -19.53169,11.32633 -17.66447,19.82771 0.94054,4.28226 7.20911,11.259043 11.52822,12.830659 5.62043,2.045132 12.20862,0.935209 16.65459,-2.805829 z"
     style="fill:#0066ff;stroke:#0066ff;stroke-width:1.53406215" />
</svg>
