<?xml version="1.0" encoding="UTF-8" standalone="no"?>
<svg
   xmlns:dc="http://purl.org/dc/elements/1.1/"
   xmlns:cc="http://creativecommons.org/ns#"
   xmlns:rdf="http://www.w3.org/1999/02/22-rdf-syntax-ns#"
   xmlns:svg="http://www.w3.org/2000/svg"
   xmlns="http://www.w3.org/2000/svg"
   aria-hidden="true"
   focusable="false"
   data-prefix="fas"
   data-icon="code-branch"
   class="svg-inline--fa fa-code-branch fa-w-12"
   role="img"
   viewBox="0 0 384 512"
   version="1.1"
   id="svg4">
  <metadata
     id="metadata10">
    <rdf:RDF>
      <cc:Work
         rdf:about="">
        <dc:format>image/svg+xml</dc:format>
        <dc:type
           rdf:resource="http://purl.org/dc/dcmitype/StillImage" />
        <dc:title></dc:title>
      </cc:Work>
    </rdf:RDF>
  </metadata>
  <defs
     id="defs8" />
  <path
     style="fill:#28bf3c;stroke:#000000;stroke-width:4;stroke-miterlimit:4;stroke-dasharray:none;fill-opacity:1"
     d="M 60.349824,508.43346 C 27.528464,499.834 4.4002238,472.34475 0.89874378,437.77239 c -1.47536,-14.56717 3.64540002,-35.0787 12.02958022,-48.18529 8.60969,-13.45912 23.10517,-25.73196 37.11936,-31.42776 l 6.26307,-2.5455 V 255.55719 155.50053 l -6.37666,-2.56339 C 14.012774,138.49692 -6.5249962,97.632675 3.1795338,59.909099 10.325124,32.132719 33.907874,8.9412986 61.734484,2.3258186 c 9.8023,-2.33039006 27.004216,-2.34980006 36.685076,-0.0414 27.91033,6.65523 50.50573,28.5629004 58.36526,56.5888304 1.82112,6.49389 2.42641,11.58159 2.44618,20.561286 0.032,14.54871 -1.81759,22.265925 -8.69005,36.257795 -8.13178,16.55572 -23.02593,30.19014 -41.04307,37.5717 l -5.45833,2.23625 -0.27887,72.34002 c -0.15338,39.78701 -0.0441,72.34001 0.24295,72.34001 0.287,0 4.07351,-1.40637 8.41447,-3.12528 15.93477,-6.30976 33.46682,-9.61372 69.72315,-13.13954 54.92881,-5.34164 72.65208,-10.10846 85.4659,-22.98677 8.27388,-8.31551 12.15791,-17.92047 14.24716,-35.23227 l 0.67612,-5.60251 -4.0929,-1.32622 c -19.26284,-6.24173 -37.06129,-22.36888 -46.14483,-41.81173 -5.05785,-10.82605 -7.26068,-20.8973 -7.28516,-33.3073 -0.0252,-12.74928 2.39895,-23.03913 8.34758,-35.43387 4.22776,-8.809125 6.33712,-11.670855 14.82375,-20.111265 7.48484,-7.44407 12.02298,-10.93967 18.63393,-14.35317 24.48242,-12.641236 50.24227,-12.641236 74.72469,0 12.63501,6.52396 26.63051,20.69779 32.92562,33.345175 11.72224,23.55089 11.97509,47.8178 0.74028,71.05085 -8.13072,16.81393 -19.83632,28.59815 -36.43146,36.67616 l -9.33541,4.54418 -0.67304,9.29962 c -1.29432,17.88439 -6.1287,34.4719 -14.04538,48.19191 -5.72369,9.91947 -20.67008,24.87134 -30.61075,30.62201 -22.15473,12.81647 -41.44382,17.45564 -96,23.08872 -36.19796,3.73753 -52.31689,6.89044 -63.59749,12.43984 -6.87461,3.38191 -15.58895,10.87104 -15.58895,13.39719 0,0.49359 3.70957,2.78032 8.24349,5.08163 10.11566,5.13444 22.34109,16.2695 29.21501,26.60937 30.07036,45.23226 6.11434,106.85223 -46.80254,120.38609 -11.09424,2.83742 -28.291036,2.81565 -39.227046,-0.0497 z M 87.85853,445.96312 c 9.83388,-4.66647 11.5558,-18.94725 3.17215,-26.30818 -7.01918,-6.16293 -17.010086,-5.55784 -23.119316,1.4002 -9.03321,10.28824 -1.96319,26.57994 11.557486,26.63231 2.59458,0.01 6.36994,-0.7659 8.38968,-1.72433 z M 311.75468,157.7804 c 5.51767,-2.91783 8.69334,-8.15562 8.68759,-14.32893 -0.01,-10.2669 -10.41804,-18.23952 -20.31411,-15.56007 -14.44377,3.91078 -16.6995,23.15141 -3.50731,29.91603 6.00547,3.07945 9.2704,3.07362 15.13383,-0.027 z M 86.57548,94.736065 c 4.71342,-1.96939 9.05984,-7.76133 9.88191,-13.1684 0.84388,-5.55055 -2.89823,-13.182696 -7.85926,-16.029226 -4.53018,-2.59932 -12.307046,-2.60237 -16.845936,-0.007 -5.04239,2.88369 -8.81714,10.879566 -7.84698,16.621896 1.78609,10.57179 12.82234,16.69707 22.670266,12.58235 z"
     id="path3733" />
</svg>
